<svg xmlns="http://www.w3.org/2000/svg" xmlns:xlink="http://www.w3.org/1999/xlink" width="122" height="31" viewBox="0 0 122 31">
    <defs>
        <path id="a" d="M0 0h121.142v30.996H0z"/>
    </defs>
    <g fill="none" fill-rule="evenodd">
        <mask id="b" fill="#fff">
            <use xlink:href="#a"/>
        </mask>
        <path fill="#FFF" d="M1.953 21.225C.65 20.96 0 22.287 0 22.287v4.25c.542-1.992 2.278-1.195 2.278-1.195l3.067.787-.01-4.05c-1.534-.404-2.902-.756-3.382-.854zm0-7.436C.65 13.524 0 14.852 0 14.852V19.1c.542-1.992 2.278-1.195 2.278-1.195l3.047.782-.012-4.05c-1.525-.402-2.882-.751-3.36-.849zm0-7.436C.65 6.088 0 7.416 0 7.416v4.249c.542-1.992 2.278-1.195 2.278-1.195l3.026.777-.012-4.051c-1.516-.4-2.863-.745-3.34-.843zm33.014 2.902a14.174 14.174 0 0 0-3.594-4.896c-1.555-1.376-3.418-2.448-5.59-3.217C23.61.373 21.19-.008 18.525 0L5.272.024l.02 7.172c2.631.693 5.773 1.548 5.773 1.548v-4.25s.652-1.327 1.953-1.062c1.302.266 9.113 2.39 9.113 2.39v3.984l-8.787-2.257s-1.736-.797-2.279 1.195v3.186s.652-1.328 1.953-1.062c1.302.266 9.113 2.39 9.113 2.39v3.984l-8.787-2.258s-1.736-.796-2.279 1.196v3.186s.652-1.328 1.953-1.062c1.302.266 9.113 2.39 9.113 2.39v3.984l-8.787-2.258s-1.736-.796-2.279 1.195V27.6l-5.72-1.47.014 4.867 13.253-.024c2.666-.008 5.083-.402 7.251-1.183s4.025-1.864 5.572-3.248a14.186 14.186 0 0 0 3.567-4.916c.832-1.893 1.244-3.956 1.238-6.188-.006-2.233-.43-4.294-1.273-6.182zm-23.902 3.472l-5.761-1.48.01 3.39c2.626.692 5.751 1.543 5.751 1.543v-3.453zm0 7.436l-5.74-1.475.01 3.39c2.621.692 5.73 1.537 5.73 1.537v-3.452zm96.062-5.092h4.436c1.145 0 2.125-.387 2.94-1.162.816-.774 1.343-1.73 1.581-2.87.25-1.264.139-2.269-.331-3.015-.47-.745-1.329-1.119-2.575-1.119h-4.419l-1.632 8.166zm-.765 3.843l-1.784 9.02h-4.895l4.946-24.872h9.314c2.481 0 4.387.743 5.719 2.229 1.33 1.486 1.764 3.391 1.3 5.714-.51 2.528-1.655 4.479-3.433 5.851-1.78 1.373-4.023 2.058-6.73 2.058h-4.437zm-8.99-1.913H87.99l-1.41 7.09h10.996l-.765 3.843H80.92l4.946-24.872h15.857l-.765 3.843H89.996l-1.241 6.253h9.382L97.372 17zm-18.883.598h-9.483l-2.057 10.335h-4.894L67 3.062h15.993l-.764 3.843H71.13l-1.36 6.85h9.484L78.49 17.6zM49.75 6.905l-3.415 17.186h3.5c1.462 0 2.674-.57 3.638-1.707.963-1.137 1.643-2.69 2.04-4.659l.832-4.147c.397-2.014.187-3.63-.629-4.847-.816-1.217-2.056-1.826-3.722-1.826H49.75zm-9.075 21.03L45.62 3.061h7.393c2.674 0 4.86 1.019 6.56 3.057 1.7 2.04 2.26 4.539 1.683 7.5l-.833 4.117c-.657 3.28-1.96 5.8-3.909 7.559-1.949 1.76-4.345 2.64-7.19 2.64h-8.65z" mask="url(#b)"/>
    </g>
</svg>
